<svg width="223" height="99" viewBox="0 0 223 99" fill="none" xmlns="http://www.w3.org/2000/svg">
<g id="TrustpilotStars.2c0e75851e3fd73663ab15bb8a567b78 1" clip-path="url(#clip0_11_345)">
<path id="Vector" d="M0 52.5753H41.8125V98.8893H0V52.5753ZM45.2968 52.5753H87.1093V98.8893H45.2968V52.5753ZM90.5933 52.5753H132.407V98.8893H90.5933V52.5753ZM135.891 52.5753H177.703V98.8893H135.891V52.5753ZM181.188 52.5753H223V98.8893H181.188V52.5753Z" fill="#00B67A"/>
<path id="Vector_2" d="M20.9063 83.7887L27.2653 82.0038L29.9221 91.0735L20.9063 83.7887ZM35.5407 72.0656H24.3471L20.9063 60.3907L17.4655 72.0656H6.27197L15.3313 79.3021L11.8905 90.977L20.9499 83.7405L26.5249 79.3021L35.5407 72.0656ZM66.2033 83.7887L72.5622 82.0038L75.2191 91.0735L66.2033 83.7887ZM80.8376 72.0656H69.6441L66.2033 60.3907L62.7624 72.0656H51.5688L60.6282 79.3021L57.1874 90.977L66.2468 83.7405L71.8218 79.3021L80.8376 72.0656ZM111.5 83.7887L117.859 82.0038L120.516 91.0735L111.5 83.7887ZM126.134 72.0656H114.941L111.5 60.3907L108.06 72.0656H96.8659L105.925 79.3021L102.485 90.977L111.544 83.7405L117.119 79.3021L126.134 72.0656ZM156.797 83.7887L163.156 82.0038L165.813 91.0735L156.797 83.7887ZM171.432 72.0656H160.238L156.797 60.3907L153.356 72.0656H142.163L151.222 79.3021L147.781 90.977L156.84 83.7405L162.415 79.3021L171.432 72.0656ZM202.094 83.7887L208.452 82.0038L211.11 91.0735L202.094 83.7887ZM216.728 72.0656H205.535L202.094 60.3907L198.653 72.0656H187.459L196.519 79.3021L193.078 90.977L202.137 83.7405L207.712 79.3021L216.728 72.0656Z" fill="white"/>
<path id="Vector_3" d="M42.6245 15.3009H58.6878V18.6132H52.363V37.2849H48.8964V18.6132H42.5981L42.6245 15.3009ZM57.9998 21.3685H60.9636V24.4462H61.0165C61.1224 24.0066 61.3077 23.5962 61.5722 23.1858C61.8369 22.7754 62.1544 22.3944 62.5514 22.0719C62.9219 21.7202 63.3453 21.4564 63.8217 21.2512C64.2715 21.0461 64.7478 20.9288 65.2242 20.9288C65.5947 20.9288 65.8594 20.9581 65.9916 20.9581C66.1239 20.9874 66.2827 21.0167 66.4151 21.0167V24.3876C66.2033 24.329 65.9652 24.2996 65.727 24.2704C65.4888 24.241 65.2772 24.2117 65.039 24.2117C64.5097 24.2117 64.0069 24.329 63.5305 24.5634C63.0542 24.798 62.6573 25.1497 62.2868 25.5894C61.9428 26.0584 61.6516 26.6154 61.4399 27.2895C61.2283 27.9637 61.1224 28.7551 61.1224 29.6345V37.197H57.9468L57.9998 21.3685ZM80.9698 37.2849H77.8472V35.0572H77.7942C77.3973 35.8779 76.8151 36.4935 76.0477 36.9918C75.2802 37.49 74.4863 37.7246 73.6925 37.7246C71.8135 37.7246 70.4375 37.2262 69.5907 36.171C68.7438 35.1452 68.3204 33.5623 68.3204 31.4811V21.3685H71.496V31.1293C71.496 32.5364 71.7342 33.5329 72.237 34.0899C72.7133 34.6762 73.4013 34.9693 74.2747 34.9693C74.9363 34.9693 75.492 34.852 75.9418 34.6175C76.3917 34.383 76.7622 34.0899 77.0268 33.7089C77.3179 33.3278 77.5032 32.8588 77.6355 32.3312C77.7678 31.8036 77.8207 31.2173 77.8207 30.6017V21.3685H80.9963V37.2849H80.9698ZM86.3683 32.1846C86.4742 33.2105 86.8182 33.914 87.4269 34.3537C88.0356 34.7641 88.7765 34.9693 89.6237 34.9693C89.9145 34.9693 90.2588 34.94 90.629 34.8814C90.9991 34.8227 91.3702 34.7347 91.6878 34.5882C92.0312 34.4416 92.2961 34.2365 92.5075 33.9433C92.7198 33.6502 92.8251 33.2985 92.7992 32.8588C92.7724 32.4191 92.6404 32.038 92.3487 31.7449C92.0579 31.4518 91.7136 31.2466 91.2908 31.0414C90.8671 30.8655 90.364 30.719 89.8083 30.6017C89.2526 30.4845 88.6971 30.3379 88.1149 30.1914C87.5327 30.0448 86.9505 29.8689 86.3948 29.6638C85.8391 29.4586 85.3628 29.1948 84.9128 28.8137C84.4895 28.462 84.119 28.0223 83.8808 27.4654C83.6161 26.9084 83.4839 26.2635 83.4839 25.4429C83.4839 24.5634 83.6691 23.86 84.0661 23.2738C84.4365 22.6875 84.9393 22.2186 85.5215 21.8668C86.1037 21.515 86.7653 21.2512 87.4798 21.1047C88.1943 20.9581 88.8823 20.8994 89.5175 20.8994C90.2588 20.8994 90.9733 20.9874 91.6342 21.1632C92.2961 21.3391 92.9312 21.6029 93.4602 22.0133C94.0159 22.3944 94.4663 22.922 94.8098 23.5376C95.1808 24.1531 95.3922 24.9153 95.4984 25.7946H92.19C92.0312 24.9445 91.6878 24.3876 91.1579 24.0945C90.6022 23.8014 89.9939 23.6548 89.2794 23.6548C89.0676 23.6548 88.7765 23.6841 88.4854 23.7134C88.1678 23.772 87.9033 23.8307 87.6121 23.9479C87.3475 24.0652 87.1093 24.241 86.9241 24.4462C86.7389 24.6514 86.633 24.9445 86.633 25.2962C86.633 25.7359 86.7653 26.0584 87.0299 26.3222C87.2946 26.586 87.6386 26.7912 88.0884 26.9963C88.5119 27.1722 89.0147 27.3188 89.5702 27.436C90.1259 27.5533 90.7083 27.6999 91.2908 27.8464C91.8724 27.993 92.4281 28.1688 92.9838 28.374C93.5396 28.5793 94.0426 28.8431 94.4663 29.2241C94.8891 29.5759 95.2602 30.0155 95.5243 30.5431C95.7892 31.0708 95.9212 31.7449 95.9212 32.507C95.9212 33.4451 95.7365 34.2365 95.3396 34.9106C94.9427 35.5555 94.4396 36.1124 93.8312 36.5228C93.222 36.9332 92.5075 37.2262 91.7672 37.4315C90.9991 37.6073 90.2588 37.7246 89.5175 37.7246C88.6178 37.7246 87.7709 37.6073 87.0035 37.3729C86.236 37.1383 85.548 36.7866 84.9922 36.3469C84.4365 35.8779 83.9867 35.321 83.6691 34.6175C83.3516 33.9433 83.1663 33.1226 83.1398 32.1553H86.3419V32.1846H86.3683ZM96.8212 21.3685H99.2296V16.5613H102.405V21.3391H105.263V23.9479H102.405V32.4485C102.405 32.8294 102.432 33.1226 102.458 33.4157C102.485 33.6795 102.564 33.914 102.643 34.0899C102.749 34.2657 102.908 34.4123 103.093 34.5003C103.305 34.5882 103.569 34.6468 103.94 34.6468C104.152 34.6468 104.39 34.6468 104.601 34.6176C104.814 34.5882 105.052 34.5589 105.263 34.5003V37.2262C104.919 37.2849 104.575 37.3142 104.231 37.3435C103.887 37.4021 103.569 37.4021 103.199 37.4021C102.353 37.4021 101.691 37.3142 101.188 37.1383C100.685 36.9624 100.288 36.6986 99.9967 36.3762C99.706 36.0245 99.5204 35.6141 99.4152 35.1158C99.309 34.6175 99.2564 34.0019 99.2296 33.357V23.9772H96.8212V21.3099V21.3685ZM107.486 21.3685H110.477V23.5376H110.529C110.979 22.5995 111.588 21.9547 112.382 21.5443C113.176 21.134 114.023 20.9288 114.975 20.9288C116.113 20.9288 117.092 21.134 117.939 21.603C118.786 22.0427 119.474 22.6289 120.029 23.4203C120.585 24.1824 121.009 25.0911 121.274 26.117C121.538 27.143 121.696 28.2568 121.696 29.4C121.696 30.4846 121.564 31.5104 121.326 32.507C121.061 33.5037 120.691 34.4123 120.188 35.1744C119.686 35.9366 119.051 36.5521 118.257 37.0211C117.463 37.49 116.563 37.7246 115.504 37.7246C115.055 37.7246 114.578 37.666 114.129 37.5781C113.678 37.4901 113.229 37.3435 112.805 37.1383C112.382 36.9332 111.985 36.6694 111.641 36.3469C111.271 36.0245 110.979 35.6434 110.741 35.2331H110.688V43.1766H107.513V21.3685H107.486ZM118.574 29.3413C118.574 28.6378 118.495 27.9344 118.309 27.2601C118.151 26.586 117.886 25.9997 117.542 25.4721C117.198 24.9445 116.774 24.5342 116.298 24.2117C115.796 23.8893 115.213 23.7428 114.578 23.7428C113.255 23.7428 112.249 24.241 111.562 25.267C110.9 26.2929 110.556 27.6706 110.556 29.3707C110.556 30.1914 110.636 30.9242 110.82 31.5984C111.006 32.2726 111.244 32.8588 111.614 33.357C111.958 33.8554 112.382 34.2365 112.884 34.5295C113.387 34.8227 113.943 34.9693 114.605 34.9693C115.345 34.9693 115.928 34.7934 116.431 34.4709C116.933 34.1485 117.33 33.7089 117.674 33.2105C117.992 32.6829 118.23 32.0967 118.362 31.4225C118.495 30.719 118.574 30.0448 118.574 29.3413ZM124.158 15.3009H127.334V18.6132H124.158V15.3009ZM124.158 21.3685H127.334V37.2849H124.158V21.3685ZM130.165 15.3009H133.341V37.2849H130.165V15.3009ZM143.026 37.7246C141.889 37.7246 140.857 37.5194 139.957 37.0797C139.057 36.64 138.316 36.0831 137.681 35.3503C137.072 34.6176 136.595 33.7089 136.278 32.6829C135.96 31.6569 135.775 30.5138 135.775 29.3121C135.775 28.1102 135.934 26.9963 136.278 25.9705C136.595 24.9445 137.072 24.0652 137.681 23.3031C138.289 22.5703 139.057 21.984 139.957 21.5737C140.857 21.1632 141.889 20.9288 143.026 20.9288C144.164 20.9288 145.196 21.134 146.096 21.5737C146.995 21.984 147.737 22.5703 148.372 23.3031C148.98 24.0358 149.456 24.9445 149.775 25.9705C150.092 26.9963 150.277 28.1102 150.277 29.3121C150.277 30.5431 150.118 31.657 149.775 32.6829C149.43 33.7089 148.98 34.5882 148.372 35.3503C147.763 36.0831 146.995 36.6694 146.096 37.0797C145.196 37.4901 144.191 37.7246 143.026 37.7246ZM143.026 34.94C143.715 34.94 144.35 34.7641 144.852 34.4416C145.382 34.1192 145.779 33.6795 146.122 33.1519C146.466 32.6243 146.705 32.0088 146.863 31.3639C147.022 30.6897 147.101 30.0155 147.101 29.3121C147.101 28.6378 147.022 27.9637 146.863 27.2895C146.705 26.6154 146.466 26.0291 146.122 25.5015C145.779 24.9739 145.355 24.5635 144.852 24.241C144.323 23.9186 143.715 23.7428 143.026 23.7428C142.338 23.7428 141.703 23.9186 141.2 24.241C140.671 24.5635 140.274 25.0032 139.93 25.5015C139.586 26.0291 139.348 26.6154 139.189 27.2895C139.031 27.9637 138.951 28.6378 138.951 29.3121C138.951 30.0155 139.031 30.6897 139.189 31.3639C139.348 32.038 139.586 32.6243 139.93 33.1519C140.274 33.6795 140.698 34.1192 141.2 34.4416C141.73 34.7934 142.338 34.94 143.026 34.94ZM151.23 21.3685H153.638V16.5613H156.814V21.3391H159.672V23.9479H156.814V32.4485C156.814 32.8294 156.84 33.1226 156.866 33.4157C156.893 33.6795 156.972 33.914 157.052 34.0899C157.158 34.2657 157.317 34.4123 157.501 34.5003C157.714 34.5882 157.978 34.6468 158.349 34.6468C158.56 34.6468 158.798 34.6468 159.01 34.6176C159.222 34.5882 159.46 34.5589 159.672 34.5003V37.2262C159.327 37.2849 158.984 37.3142 158.639 37.3435C158.295 37.4021 157.978 37.4022 157.607 37.4022C156.761 37.4022 156.099 37.3143 155.596 37.1383C155.094 36.9624 154.697 36.6986 154.405 36.3762C154.114 36.0245 153.929 35.6141 153.824 35.1158C153.717 34.6175 153.665 34.0019 153.638 33.3571V23.9772H151.23V21.3099V21.3685Z" fill="#8A85A6"/>
<path id="Vector_4" d="M38.9198 15.3009H24.3915L19.9192 0L15.4205 15.3009L0.89209 15.2716L12.6418 24.7393L8.14302 40.0403L19.8928 30.5724L31.6425 40.0403L27.1701 24.7393L38.9198 15.3009Z" fill="#00B67A"/>
<path id="Vector_5" d="M28.1755 28.1983L27.1699 24.7394L19.9189 30.5725L28.1755 28.1983Z" fill="#005128"/>
</g>
<defs>
<clipPath id="clip0_11_345">
<rect width="223" height="99" fill="white"/>
</clipPath>
</defs>
</svg>
